HIERARCHY
ROOT Hips
{
	OFFSET 0.000000 0.000000 0.000000
	CHANNELS 6 Xposition Yposition Zposition Xrotation Yrotation Zrotation
	JOINT LeftUpLeg_virtual
	{
		OFFSET 0.000000 0.000000 0.000000
		CHANNELS 3 Xrotation Yrotation Zrotation
		JOINT LeftUpLeg
		{
			OFFSET 13.026900 -6.336304 -1.092800
			CHANNELS 3 Xrotation Yrotation Zrotation
			JOINT LeftLeg
			{
				OFFSET 0.524474 -46.096886 9.782700
				CHANNELS 3 Xrotation Yrotation Zrotation
				JOINT LeftFoot
				{
					OFFSET -0.524474 -53.427422 -12.948200
					CHANNELS 3 Xrotation Yrotation Zrotation
					JOINT LeftToeBase
					{
						OFFSET 0.192200 -14.009700 16.364100
						CHANNELS 3 Xrotation Yrotation Zrotation
						JOINT LeftToe_End
						{
							OFFSET -1.784700 -0.561700 9.474800
							CHANNELS 3 Xrotation Yrotation Zrotation
							End Site
							{
								OFFSET 0 0 0
							}
						}
					}
				}
			}
		}
	}
	JOINT RightUpLeg_virtual
	{
		OFFSET 0.000000 0.000000 0.000000
		CHANNELS 3 Xrotation Yrotation Zrotation
		JOINT RightUpLeg
		{
			OFFSET -12.883000 -6.336304 -1.092800
			CHANNELS 3 Xrotation Yrotation Zrotation
			JOINT RightLeg
			{
				OFFSET -0.524587 -46.096825 9.782800
				CHANNELS 3 Xrotation Yrotation Zrotation
				JOINT RightFoot
				{
					OFFSET 0.524587 -53.427383 -12.948300
					CHANNELS 3 Xrotation Yrotation Zrotation
					JOINT RightToeBase
					{
						OFFSET -0.192200 -14.009700 16.364100
						CHANNELS 3 Xrotation Yrotation Zrotation
						JOINT RightToe_End
						{
							OFFSET 1.784700 -0.561700 9.474800
							CHANNELS 3 Xrotation Yrotation Zrotation
							End Site
							{
								OFFSET 0 0 0
							}
						}
					}
				}
			}
		}
	}
	JOINT Spine_virtual
	{
		OFFSET 0.000000 0.000000 0.000000
		CHANNELS 3 Xrotation Yrotation Zrotation
		JOINT Spine
		{
			OFFSET 0.072000 7.257294 -0.789700
			CHANNELS 3 Xrotation Yrotation Zrotation
			JOINT Spine1
			{
				OFFSET 0.000000 12.508769 -0.658067
				CHANNELS 3 Xrotation Yrotation Zrotation
				JOINT Spine1_split
				{
					OFFSET 0.000000 12.508769 -0.658067
					CHANNELS 3 Xrotation Yrotation Zrotation
					JOINT Spine2
					{
						OFFSET 0.000000 12.508769 -0.658067
						CHANNELS 3 Xrotation Yrotation Zrotation
						JOINT Neck_virtual
						{
							OFFSET 0.000000 0.000000 0.000000
							CHANNELS 3 Xrotation Yrotation Zrotation
							JOINT Neck
							{
								OFFSET 0.000000 14.033295 7.520400
								CHANNELS 3 Xrotation Yrotation Zrotation
								JOINT Head
								{
									OFFSET 0.000000 8.198502 5.703100
									CHANNELS 3 Xrotation Yrotation Zrotation
									JOINT HeadTop_End
									{
										OFFSET 0.000000 17.760803 13.332701
										CHANNELS 3 Xrotation Yrotation Zrotation
										End Site
										{
											OFFSET 0 0 0
										}
									}
								}
							}
						}
						JOINT LeftShoulder_virtual
						{
							OFFSET 0.000000 0.000000 0.000000
							CHANNELS 3 Xrotation Yrotation Zrotation
							JOINT LeftShoulder
							{
								OFFSET 6.292450 5.785301 -0.669000
								CHANNELS 3 Xrotation Yrotation Zrotation
								JOINT LeftShoulder_split
								{
									OFFSET 6.292450 5.785301 -0.669000
									CHANNELS 3 Xrotation Yrotation Zrotation
									JOINT LeftArm
									{
										OFFSET 13.907140 -6.093903 1.965100
										CHANNELS 3 Xrotation Yrotation Zrotation
										JOINT LeftForeArm
										{
											OFFSET 34.140198 0.000000 0.000000
											CHANNELS 3 Xrotation Yrotation Zrotation
											JOINT LeftHand
											{
												OFFSET 40.960209 0.000000 0.000000
												CHANNELS 3 Xrotation Yrotation Zrotation
												End Site
												{
													OFFSET 0 0 0
												}
											}
										}
									}
								}
							}
						}
						JOINT RightShoulder_virtual
						{
							OFFSET 0.000000 0.000000 0.000000
							CHANNELS 3 Xrotation Yrotation Zrotation
							JOINT RightShoulder
							{
								OFFSET -6.292450 5.785301 -0.669000
								CHANNELS 3 Xrotation Yrotation Zrotation
								JOINT RightShoulder_split
								{
									OFFSET -6.292450 5.785301 -0.669000
									CHANNELS 3 Xrotation Yrotation Zrotation
									JOINT RightArm
									{
										OFFSET -13.907140 -6.093903 1.965100
										CHANNELS 3 Xrotation Yrotation Zrotation
										JOINT RightForeArm
										{
											OFFSET -34.140198 0.000000 0.000000
											CHANNELS 3 Xrotation Yrotation Zrotation
											JOINT RightHand
											{
												OFFSET -40.960209 0.000000 0.000000
												CHANNELS 3 Xrotation Yrotation Zrotation
												End Site
												{
													OFFSET 0 0 0
												}
											}
										}
									}
								}
							}
						}
					}
				}
			}
		}
	}
}
MOTION
Frames: 7
Frame Time: 0.03333333
-0.884229 104.814049 9.262581 0.000000 0.000000 0.000000 -15.111262 -1.411698 -5.176576 -32.622780 23.017314 8.865466 40.360011 -7.536690 10.060569 1.657239 -7.429260 0.535345 -2.612552 0.095397 -0.867892 0.000000 0.000000 0.000000 -14.659031 -0.793532 -5.228918 -23.671813 -31.008840 -0.630973 35.594810 7.921402 -9.819024 3.743946 8.692811 -6.617709 -3.442218 -0.027521 -0.291057 0.000000 0.000000 0.000000 -14.842230 -2.068975 -5.828476 5.246367 -1.449241 2.838484 13.442866 -0.868963 -0.190079 0.475709 2.468724 -0.428657 0.000000 0.000000 0.000000 11.894009 -0.324397 -0.360227 11.191779 1.039322 1.371844 -1.543677 1.457899 3.455564 0.000000 0.000000 0.000000 12.273040 -0.172049 -0.461026 0.772617 7.177221 -10.121318 -2.047332 -2.572536 -0.515919 82.208177 -69.352655 10.924488 0.119626 -25.186215 1.268976 0.000000 0.000000 0.000000 12.372138 -0.381218 -0.470818 1.534940 -1.297234 10.820188 5.924679 0.368560 -2.307491 6.166908 35.258960 58.512694 -0.944559 27.613673 0.435962 0.000000 0.000000 0.000000 
-0.853486 104.822556 9.270046 0.000000 0.000000 0.000000 -15.118656 -1.462720 -5.145803 -32.603747 23.122458 8.860440 40.351487 -7.528528 10.053466 1.645001 -7.441881 0.556662 -2.607830 0.093409 -0.861907 0.000000 0.000000 0.000000 -14.668241 -0.845232 -5.197019 -23.703258 -30.891569 -0.614950 35.605373 7.895554 -9.838892 3.742821 8.654581 -6.610990 -3.400073 -0.034330 -0.278697 0.000000 0.000000 0.000000 -14.844357 -2.116780 -5.795896 5.243974 -1.438385 2.827623 13.439701 -0.852925 -0.187288 0.472670 2.458417 -0.424697 0.000000 0.000000 0.000000 11.890815 -0.309553 -0.359397 11.215218 1.040474 1.342203 -1.567059 1.464066 3.457854 0.000000 0.000000 0.000000 12.269240 -0.159934 -0.457123 0.772310 7.188590 -10.174077 -2.050775 -2.537394 -0.523184 82.057032 -69.269040 10.856375 0.120249 -25.265997 1.266357 0.000000 0.000000 0.000000 12.362705 -0.366920 -0.465922 1.532863 -1.294632 10.800119 5.902421 0.370125 -2.307735 6.168838 35.268115 58.482163 -0.949506 27.573460 0.439847 0.000000 0.000000 0.000000 
-0.830158 104.824440 9.279079 0.000000 0.000000 0.000000 -15.122505 -1.506701 -5.110272 -32.583066 23.223072 8.852106 40.343359 -7.518790 10.047455 1.625126 -7.452816 0.587294 -2.600318 0.091420 -0.859144 0.000000 0.000000 0.000000 -14.676099 -0.887214 -5.161050 -23.753989 -30.779786 -0.612497 35.643465 7.876242 -9.861527 3.748008 8.637816 -6.600425 -3.368542 -0.036588 -0.266940 0.000000 0.000000 0.000000 -14.845601 -2.153159 -5.760333 5.239196 -1.432090 2.808697 13.437591 -0.841261 -0.185020 0.473987 2.449982 -0.421547 0.000000 0.000000 0.000000 11.890123 -0.298668 -0.358580 11.248082 1.041283 1.313261 -1.590947 1.454096 3.488793 0.000000 0.000000 0.000000 12.268826 -0.152063 -0.453454 0.772505 7.196678 -10.220593 -2.048716 -2.509916 -0.530620 81.773067 -69.173164 10.662655 0.122670 -25.369766 1.263382 0.000000 0.000000 0.000000 12.355146 -0.356979 -0.461344 1.532188 -1.282470 10.805177 5.884151 0.383629 -2.313701 6.211450 35.265226 58.402325 -0.950017 27.579780 0.443390 0.000000 0.000000 0.000000 
-0.817201 104.815437 9.290787 0.000000 0.000000 0.000000 -15.123425 -1.538000 -5.072184 -32.566154 23.306846 8.841746 40.345545 -7.513609 10.046133 1.600884 -7.464628 0.619536 -2.594138 0.089745 -0.860115 0.000000 0.000000 0.000000 -14.682625 -0.913990 -5.123800 -23.820447 -30.684966 -0.626847 35.713533 7.868090 -9.886193 3.751677 8.650271 -6.584277 -3.348364 -0.034115 -0.258038 0.000000 0.000000 0.000000 -14.846207 -2.173777 -5.723487 5.231316 -1.430262 2.782495 13.435278 -0.835110 -0.183466 0.474619 2.444123 -0.419861 0.000000 0.000000 0.000000 11.889596 -0.293016 -0.357711 11.292669 1.041199 1.290421 -1.611554 1.426606 3.551384 0.000000 0.000000 0.000000 12.270144 -0.149276 -0.450166 0.773548 7.202660 -10.255394 -2.039699 -2.495058 -0.535150 81.400876 -69.072235 10.375465 0.126941 -25.491434 1.258939 0.000000 0.000000 0.000000 12.348903 -0.352279 -0.457219 1.532346 -1.262700 10.833533 5.872883 0.410278 -2.328625 6.290133 35.250258 58.290993 -0.945940 27.629290 0.445604 0.000000 0.000000 0.000000 
-0.815540 104.798241 9.304970 0.000000 0.000000 0.000000 -15.120866 -1.550489 -5.034589 -32.557483 23.363709 8.830051 40.359438 -7.516482 10.050683 1.577338 -7.478333 0.644739 -2.589577 0.088680 -0.864565 0.000000 0.000000 0.000000 -14.685139 -0.925530 -5.087861 -23.891664 -30.612689 -0.656105 35.806283 7.868816 -9.909313 3.746867 8.688708 -6.563454 -3.336536 -0.027956 -0.252372 0.000000 0.000000 0.000000 -14.845158 -2.179285 -5.688942 5.220888 -1.431381 2.751398 13.431641 -0.834081 -0.182536 0.477169 2.441200 -0.418902 0.000000 0.000000 0.000000 11.886961 -0.292387 -0.356609 11.349215 1.040867 1.277973 -1.626323 1.385771 3.642230 0.000000 0.000000 0.000000 12.270127 -0.150920 -0.447371 0.775301 7.206520 -10.275875 -2.022708 -2.493656 -0.537341 80.989706 -68.974051 10.034392 0.132076 -25.623902 1.252987 0.000000 0.000000 0.000000 12.342260 -0.352703 -0.453689 1.532972 -1.237458 10.883583 5.870392 0.444912 -2.350815 6.395492 35.222223 58.162592 -0.937507 27.710730 0.446614 0.000000 0.000000 0.000000 
-0.823090 104.777382 9.317665 0.000000 0.000000 0.000000 -15.113890 -1.540768 -5.000281 -32.557876 23.389086 8.818071 40.377971 -7.527419 10.059759 1.559913 -7.491611 0.659615 -2.583957 0.088201 -0.871964 0.000000 0.000000 0.000000 -14.682496 -0.919055 -5.055369 -23.951433 -30.562214 -0.689921 35.900290 7.874750 -9.928722 3.731275 8.742410 -6.543329 -3.328602 -0.019566 -0.250143 0.000000 0.000000 0.000000 -14.840666 -2.173098 -5.659438 5.208399 -1.433585 2.719265 13.424558 -0.836902 -0.182046 0.479273 2.437383 -0.416840 0.000000 0.000000 0.000000 11.880072 -0.295263 -0.355074 11.416186 1.040721 1.276944 -1.633707 1.335173 3.753558 0.000000 0.000000 0.000000 12.265492 -0.155283 -0.444910 0.778539 7.209598 -10.283312 -2.001327 -2.507134 -0.537393 80.582900 -68.885005 9.682809 0.137369 -25.757801 1.245435 0.000000 0.000000 0.000000 12.333139 -0.356806 -0.450452 1.533649 -1.210542 10.953480 5.876968 0.478906 -2.374834 6.515318 35.177353 58.029717 -0.927014 27.811260 0.446802 0.000000 0.000000 0.000000 
-0.836005 104.759346 9.328472 0.000000 0.000000 0.000000 -15.101939 -1.513989 -4.972898 -32.563726 23.385173 8.804431 40.388964 -7.541423 10.069815 1.550399 -7.499732 0.664667 -2.576779 0.088234 -0.880921 0.000000 0.000000 0.000000 -14.672822 -0.901427 -5.028482 -23.989626 -30.527305 -0.717160 35.971840 7.880895 -9.941752 3.704080 8.794832 -6.528816 -3.323030 -0.010858 -0.250869 0.000000 0.000000 0.000000 -14.831450 -2.156733 -5.637242 5.194776 -1.434356 2.690825 13.412536 -0.840763 -0.181520 0.477410 2.431448 -0.418397 0.000000 0.000000 0.000000 11.867924 -0.299188 -0.353417 11.490525 1.041846 1.286020 -1.632818 1.279965 3.873340 0.000000 0.000000 0.000000 12.254443 -0.159660 -0.442701 0.783507 7.214470 -10.283315 -1.984461 -2.523557 -0.541096 80.207820 -68.806875 9.350251 0.141292 -25.885565 1.237161 0.000000 0.000000 0.000000 12.319505 -0.361911 -0.447545 1.533932 -1.184592 11.039491 5.889246 0.509893 -2.394719 6.642816 35.115922 57.897792 -0.914738 27.917749 0.446398 0.000000 0.000000 0.000000 
